<svg height='300px' width='300px'  fill="#000000" xmlns="http://www.w3.org/2000/svg" xmlns:xlink="http://www.w3.org/1999/xlink" version="1.1" x="0px" y="0px" viewBox="0 0 100 100" enable-background="new 0 0 100 100" xml:space="preserve"><path fill="#000000" d="M74.8,79.3c0,0-1,4.7,2.8,8.5c8.7,8.7,18.4,0,18.4,0s-2.7,0.1-4.2-1.4s-0.4-6-3.5-9.2C85,74,79,75,79,75  L74.8,79.3z"></path><path fill="#000000" d="M45.2,36.8C29.5,22.7,8.2,4.4,6.2,6.5s16.2,23.3,30.3,39L45.2,36.8z"></path><path fill="#000000" d="M62.7,53.1L52.8,63c5.8,5.8,16.7,15.9,19.8,12.7l1.4-1.4l1.4-1.4C78.6,69.8,68.5,59,62.7,53.1z"></path><rect x="40.6" y="13.3" transform="matrix(0.7071 0.7071 -0.7071 0.7071 49.7978 -19.6367)" fill="#000000" width="16" height="74"></rect><polygon fill="#000000" points="16.1,88.5 10.4,82.8 14,73.6 25.3,84.9 "></polygon><polygon fill="#000000" points="6.9,92 8.3,86.4 12.5,90.6 "></polygon><rect x="71" y="17.9" transform="matrix(0.7071 0.7071 -0.7071 0.7071 37.2034 -50.0423)" fill="#000000" width="16" height="4"></rect><path fill="#000000" d="M93.2,8.6l-2.8-2.8c-2.3-2.3-6.1-2.3-8.5,0L77.6,10l11.3,11.3l4.2-4.2C95.5,14.7,95.5,10.9,93.2,8.6z"></path></svg>