<svg height='300px' width='300px'  fill="#000000" xmlns="http://www.w3.org/2000/svg" xmlns:xlink="http://www.w3.org/1999/xlink" version="1.1" x="0px" y="0px" viewBox="0 0 100 100" enable-background="new 0 0 100 100" xml:space="preserve"><g><path d="M85.798,51.823H73.494c-2.059,0.188-3.934,1-5.451,2.233c0.149,0.15,0.299,0.303,0.442,0.46   c2.711,2.953,4.204,6.79,4.204,10.803c0,0.664-0.046,1.292-0.128,1.89c0.082,0,0.165,0,0.248,0c0.526,0,1.066-0.003,1.618-0.003   h10.438c0.548,0,1.09,0.003,1.617,0.003c4.828,0,8.517-0.247,8.517-5.294C94.999,56.631,90.958,52.294,85.798,51.823z"></path><circle cx="79.646" cy="41.546" r="8.755"></circle><path d="M31.514,54.517c0.144-0.157,0.293-0.31,0.442-0.46c-1.517-1.234-3.392-2.045-5.451-2.233H14.202   C9.042,52.295,5,56.632,5,61.915c0,5.046,3.688,5.294,8.516,5.294c0.526,0,1.067-0.003,1.619-0.003h10.437   c0.549,0,1.091,0.003,1.618,0.003c0.083,0,0.166,0,0.249,0c-0.083-0.598-0.129-1.226-0.129-1.89   C27.309,61.308,28.803,57.471,31.514,54.517z"></path><circle cx="20.353" cy="41.546" r="8.755"></circle><path d="M69.739,65.319c0-6.794-5.197-12.37-11.831-12.976H42.09c-6.634,0.606-11.831,6.183-11.831,12.976   c0,6.487,4.741,6.807,10.95,6.807c0.678,0,1.372-0.004,2.082-0.004h13.42c0.705,0,1.401,0.004,2.078,0.004   C64.997,72.126,69.739,71.808,69.739,65.319z"></path><path d="M54.619,49.394c3.912-1.764,6.637-5.695,6.637-10.264c0-6.217-5.039-11.256-11.256-11.256   c-6.215,0-11.257,5.039-11.257,11.256c0,4.569,2.726,8.5,6.637,10.264c1.41,0.636,2.973,0.993,4.62,0.993   C51.647,50.387,53.21,50.03,54.619,49.394z"></path></g></svg>