<svg height='300px' width='300px'  fill="#000000" xmlns:dc="http://purl.org/dc/elements/1.1/" xmlns:cc="http://creativecommons.org/ns#" xmlns:rdf="http://www.w3.org/1999/02/22-rdf-syntax-ns#" xmlns:svg="http://www.w3.org/2000/svg" xmlns="http://www.w3.org/2000/svg" xmlns:sodipodi="http://sodipodi.sourceforge.net/DTD/sodipodi-0.dtd" xmlns:inkscape="http://www.inkscape.org/namespaces/inkscape" version="1.1" x="0px" y="0px" viewBox="0 0 100 100"><g transform="translate(0,-952.36218)"><path style="text-indent:0;text-transform:none;direction:ltr;block-progression:tb;baseline-shift:baseline;color:#000000;enable-background:accumulate;" d="m 42.99977,957.36216 c -9.9174,0 -17.999999,8.08257 -17.999999,18 0,3.90626 1.1598,8.0726 3.375,11.15625 a 2.0034761,2.0034761 0 1 0 3.249999,-2.34375 c -1.556899,-2.1672 -2.624999,-5.75998 -2.624999,-8.8125 0,-7.75567 6.244299,-14 13.999999,-14 7.7557,0 14,6.24433 14,14 0,3.05252 -1.0681,6.6453 -2.625,8.8125 a 2.003476,2.003476 0 1 0 3.25,2.34375 c 2.2152,-3.08365 3.375,-7.24999 3.375,-11.15625 0,-9.91743 -8.0826,-18 -18,-18 z m 0,14 c -4.3974,0 -8,3.60259 -8,8 l 0,27.53124 c -1.2386,-2.6772 -3.4613,-5.571 -6.249999,-6.2812 -3.7941,-1.0301 -8.4416,2.0051 -9.5,5.5312 -0.5395,1.9654 -0.1878,4.2021 0.875,6.9375 5.1954,12.4929 11.592299,24.487 19.374999,33.5938 0.3721,0.4278 0.9331,0.6849 1.5,0.6875 l 27,0 c 0.4256,0 0.8484,-0.1492 1.1875,-0.4063 2.8787,-2.1325 5.1989,-5.7652 7.125,-10.0937 1.9261,-4.3285 3.4005,-9.3497 4.1563,-14.25 0.7559,-4.9003 0.7528,-9.489 -0.3126,-13.5625 -1.0281,-3.9315 -3.8018,-7.2034 -7.9374,-7.6875 -0.9748,0 -2.0043,0.081 -2.875,0.2812 -0.513,-1.2265 -1.232,-2.2725 -2.125,-2.9062 -1.4955,-1.0612 -3.0174,-1.3954 -4.25,-1.375 -1.1834,0.02 -2.2626,0.4507 -3.2188,1.125 -0.4303,-0.6567 -0.8728,-1.3399 -1.4375,-1.75 -1.4826,-1.0767 -3.0599,-1.37503 -4.3125,-1.37503 -1.0361,0 -2.0389,0.28735 -3,0.68753 l 0,-16.68753 c -0.085,-5.35282 -4.3066,-8.0103 -8,-8 z m 0,4 c 2.2506,0 4,1.74942 4,4 l 0,21.00004 c -0.013,0.9065 0.6789,1.7659 1.5625,1.9687 0.8836,0.2028 1.8666,-0.2722 2.25,-1.0937 0.4418,-0.9185 2.1062,-1.875 3.1875,-1.875 0.4854,0 1.3858,0.20169 1.9688,0.625 0.5827,0.4233 1.0312,0.9187 1.0312,2.375 0,0.8891 0.6666,1.7303 1.5312,1.9375 0.8647,0.2072 1.8454,-0.2396 2.25,-1.0313 0.8132,-1.6265 1.2489,-1.8895 2.25,-1.9062 0.2771,0 1.2478,0.1799 1.875,0.625 0.6272,0.445 1.0938,0.9567 1.0938,2.375 -0.01,0.7789 0.4733,1.5329 1.1875,1.8437 0.7143,0.3109 1.6218,0.1605 2.1875,-0.375 0.7584,-0.3738 1.5022,-0.4872 2.4688,-0.4687 2.3844,0.3033 3.6223,1.7976 4.4687,4.7812 0.8543,3.0111 0.8861,7.315 0.1875,11.8438 -0.6985,4.5288 -2.0792,9.2845 -3.8438,13.25 -1.6548,3.7191 -3.6815,6.6235 -5.4687,8.125 l -25.2187,0 c -7.0202,-8.2816 -13.723999,-20.9984 -18.093799,-31.7188 -0.9097,-2.3414 -0.9917,-3.6859 -0.7812,-4.4375 0.7411,-1.9344 2.815,-3.0265 4.5937,-2.75 2.1264,0.8009 2.653299,2.2198 3.562499,3.8438 l 3.9688,7.9687 c 0.4047,0.7917 1.3852,1.2385 2.25,1.0313 0.8646,-0.2072 1.5294,-1.0484 1.5312,-1.9375 l 0,-36.00003 c 0,-2.25059 1.7494,-4 4,-4 z" fill="#000000" fill-opacity="1" stroke="none" marker="none" visibility="visible" display="inline" overflow="visible"></path></g></svg>